<svg xmlns="http://www.w3.org/2000/svg" width="443" height="70.06" viewBox="0 0 443 70.06">
  <defs>
    <style>
      .cls-1 {
        fill: #fff;
      }
    </style>
  </defs>
  <path id="logo-rainshadow" class="cls-1" d="M.6,70.125V.843H14.955A27.66,27.66,0,0,1,26.1,2.773,12.794,12.794,0,0,1,32.485,8.72,22.7,22.7,0,0,1,34.54,19.058a29.549,29.549,0,0,1-.841,7.255,14.074,14.074,0,0,1-2.771,5.636,10.318,10.318,0,0,1-5.169,3.238l10,34.906H28.936a2.307,2.307,0,0,1-2.211-1.65L17.882,37.274H9.505V70.125ZM14.425,30.86a16.206,16.206,0,0,0,6.664-1.152,7.067,7.067,0,0,0,3.674-3.737,17.589,17.589,0,0,0,1.121-6.913c0-4.11-.716-7.1-2.18-8.968s-4.39-2.834-8.781-2.834H9.443v23.6ZM73.774,69.813h6.508L65.678,1.092H57.022L42.449,69.813h6.414a2.3,2.3,0,0,0,2.242-1.837l2.647-13.763,7.567-40.791L71.5,67.976A2.394,2.394,0,0,0,73.774,69.813Zm17.686,0V3.365a2.266,2.266,0,0,1,2.273-2.273h6.383V67.54a2.266,2.266,0,0,1-2.273,2.273Zm24.724,0V1.092h6.1L142.4,48.7V3.365a2.266,2.266,0,0,1,2.273-2.273h5.013V69.813h-5.7l-20.364-48.7V67.54a2.266,2.266,0,0,1-2.273,2.273Zm62.432.747a17.724,17.724,0,0,1-9.715-2.491,15.908,15.908,0,0,1-5.854-6.913,29.665,29.665,0,0,1-2.429-10.276l5.262-1.432a2.289,2.289,0,0,1,2.865,1.9,43.689,43.689,0,0,0,.965,4.64,12.173,12.173,0,0,0,3.052,5.511,7.937,7.937,0,0,0,5.854,2.117,8.115,8.115,0,0,0,6.072-2.149,8.834,8.834,0,0,0,2.086-6.321,12.644,12.644,0,0,0-2.149-7.629,38.814,38.814,0,0,0-5.543-6.01L167.375,30.891a20.012,20.012,0,0,1-4.92-6.446,19.563,19.563,0,0,1-1.619-8.407c0-4.92,1.432-8.75,4.328-11.459S171.921.5,176.779.5a22.037,22.037,0,0,1,7.037,1.028A12.8,12.8,0,0,1,188.954,4.7a15.474,15.474,0,0,1,3.3,5.511,32.1,32.1,0,0,1,1.65,7.94l-4.889,1.277a2.279,2.279,0,0,1-2.834-1.868,25.356,25.356,0,0,0-.841-3.955A9.243,9.243,0,0,0,182.508,9a10.067,10.067,0,0,0-11.583.311,7.585,7.585,0,0,0-2.211,5.885,11.429,11.429,0,0,0,1.059,5.231,16.116,16.116,0,0,0,3.519,4.359l11.8,10.431a40.2,40.2,0,0,1,6.882,8.22,19.989,19.989,0,0,1,2.958,11.023,16.933,16.933,0,0,1-2.086,8.687,14.143,14.143,0,0,1-5.729,5.511A18.012,18.012,0,0,1,178.616,70.56Zm54.647-67.2V30.143H214.611V1.092H205.8V69.813h6.539a2.266,2.266,0,0,0,2.273-2.273V37.4h18.652V69.844h8.75V1.092h-6.446A2.273,2.273,0,0,0,233.263,3.365Zm48.513,66.448h6.508L273.68,1.092h-8.656l-14.6,68.722h6.414a2.3,2.3,0,0,0,2.242-1.837l2.647-13.763,7.567-40.791,10.182,54.554A2.429,2.429,0,0,0,281.776,69.813Zm14.915,0V1.092h14.946c5.044,0,9,.778,11.864,2.366a13.515,13.515,0,0,1,6.2,7.006,30.521,30.521,0,0,1,1.868,11.4V47.643A34.318,34.318,0,0,1,329.7,59.662a14.542,14.542,0,0,1-6.072,7.535c-2.8,1.713-6.57,2.584-11.334,2.584h-15.6ZM305.5,63.43h6.2c3.55,0,6.1-.685,7.629-2.086a9.416,9.416,0,0,0,2.8-5.978,73.108,73.108,0,0,0,.5-9.341V22.857a43.891,43.891,0,0,0-.716-8.656A7.432,7.432,0,0,0,318.83,9.25c-1.588-1.059-4.048-1.557-7.38-1.557H305.5Zm55.955,7.131c-4.577,0-8.252-.9-10.992-2.709a14.588,14.588,0,0,1-5.823-7.691,36.055,36.055,0,0,1-1.681-11.583V21.861a33.477,33.477,0,0,1,1.744-11.4,13.963,13.963,0,0,1,5.823-7.38C353.238,1.372,356.881.5,361.458.5s8.22.872,10.9,2.584a14.58,14.58,0,0,1,5.823,7.38,32.937,32.937,0,0,1,1.775,11.4V48.67a34,34,0,0,1-1.775,11.49,15.4,15.4,0,0,1-5.761,7.691C369.772,69.657,366.1,70.56,361.458,70.56Zm0-6.944A9.728,9.728,0,0,0,367.53,62a8.115,8.115,0,0,0,2.8-4.577,30.144,30.144,0,0,0,.716-6.881V20.179a28.818,28.818,0,0,0-.716-6.819,7.6,7.6,0,0,0-2.8-4.422c-1.4-1.059-3.394-1.557-6.072-1.557a10.094,10.094,0,0,0-6.072,1.557,7.794,7.794,0,0,0-2.834,4.422,27.159,27.159,0,0,0-.747,6.819v30.36a28.392,28.392,0,0,0,.747,6.881A8.049,8.049,0,0,0,355.386,62,9.932,9.932,0,0,0,361.458,63.617Zm37.864,6.2L388.05,1.092h5.325a2.335,2.335,0,0,1,2.273,1.931l7.94,52.717,9.435-25.6h4.7a2.287,2.287,0,0,1,2.149,1.495l8.874,24.1L436.1,3.022a2.285,2.285,0,0,1,2.273-1.962H443.6L432.577,69.782h-6.539L416.2,40.014,406.172,69.782h-6.85Z" transform="translate(-0.6 -0.5)"/>
</svg>
