<?xml version="1.0" encoding="utf-8"?>
<!-- Generator: Adobe Illustrator 24.3.0, SVG Export Plug-In . SVG Version: 6.00 Build 0)  -->
<svg version="1.1" id="logo" xmlns="http://www.w3.org/2000/svg" xmlns:xlink="http://www.w3.org/1999/xlink" x="0px" y="0px"
	 viewBox="0 0 130 103.5" style="enable-background:new 0 0 130 103.5;" xml:space="preserve">
<style type="text/css">
	.st0{fill:#A81B8D;}
</style>
<path id="logo-icon" class="st0" d="M37.6,83.4V94h-1.1v-9.6C36.9,84.1,37.2,83.7,37.6,83.4z M40.2,80.6v13.6h1.1V79.3
	C40.9,79.8,40.5,80.2,40.2,80.6z M29.1,90.9V94h1.1v-3.9C29.8,90.4,29.4,90.7,29.1,90.9z M32.7,88V94h1.1v-7
	C33.4,87.3,33.1,87.6,32.7,88z M95.9,86.8v7.4H97v-6.4C96.6,87.4,96.3,87.1,95.9,86.8z M99.6,89.9v4.2h1.1v-3.4
	C100.3,90.5,100,90.2,99.6,89.9z M88.4,78.9v15.2h1.1V80.2C89.1,79.8,88.8,79.4,88.4,78.9z M92.2,83.1v11h1.1v-9.9
	C92.9,83.9,92.5,83.5,92.2,83.1z M107.6,93.6c7.6,4.9,15,7.8,20.7,8.2c0.3,0,0.5,0,0.6,0c0,0,0,0,0-0.1c0-0.1,0-0.1,0-0.2
	c-0.1-0.6-0.4-2-3.2-5.3c-0.3-0.3-0.7-0.8-1.2-1.3c-5.8-6.7-23.3-27.2-27.6-39.3c-3.4-7.3-5.8-13.9-7.7-19.2
	c-2.2-6.1-3.7-10.4-5.5-11.9l0,0c-0.6-0.7-1.8-1.6-3.2-2c-1.3-0.3-1.9-0.3-2.6-0.3c-0.1,0-0.2,0.2-0.3,0.4
	c-1,13.1-1.3,20.4-0.5,28.7c1,10.2,6.5,17.9,11.3,24.8l0.1,0.1C93.3,82.6,100.2,88.8,107.6,93.6z M52.5,22.5c0-0.3-0.2-0.4-0.3-0.4
	c-0.7,0-1.3,0-2.6,0.3c-1.4,0.4-2.6,1.3-3.2,2l0,0c-1.7,1.5-3.3,5.8-5.5,11.9c-1.9,5.3-4.3,11.9-7.7,19.2
	C28.9,67.7,11.3,88.1,5.5,94.8c-0.5,0.6-0.9,1-1.2,1.3c-2.8,3.3-3.1,4.6-3.2,5.3c0,0.1,0,0.2,0,0.2c0,0,0,0,0,0.1c0.1,0,0.3,0,0.6,0
	c5.8-0.4,13.1-3.2,20.7-8.2c7.4-4.8,14.3-11.1,19.2-17.5l0.1-0.1c4.8-6.9,10.3-14.6,11.3-24.8C53.8,42.9,53.5,35.7,52.5,22.5z
	 M97.9,53.8c0.2-0.8,0.4-1.7,0.6-2.7c-1.1-0.9-2.1-1.8-2.9-2.5C96.3,50.2,97,52,97.9,53.8z M90.8,35.8c1.1,3,2.3,6.4,3.7,10.1
	c1,0.9,2.7,2.3,4.6,3.9c0.8-3.4,1.7-7.3,2-8.1c0.2-0.9-0.1-1.4-0.6-1.9c-0.9-1-11-8.1-11-8.1c0,0.1,0,0.4,0,0.7
	C89.9,33.5,90.3,34.6,90.8,35.8z M98.7,55.7c0.5,1.2,1.1,2.5,1.8,4c0.5,0.8,1,1.5,1.6,2.3c1,1.4,2.7,3.8,5.6,5.3
	c2.7,1,4.4,0.4,6.2-1c0.8-0.8,0.3-1.4-1.2-2.8c0,0-8.5-7.3-13.2-11.4C99.2,53.6,98.9,54.9,98.7,55.7z M22.2,67.3
	c3-1.5,4.6-3.9,5.6-5.3c0.5-0.8,1.1-1.5,1.6-2.3c0.8-1.4,1.4-2.8,1.8-4c-0.2-0.8-0.5-2.1-0.9-3.6c-4.7,4-13.2,11.4-13.2,11.4
	c-1.5,1.5-2,2.1-1.2,2.8C17.8,67.8,19.5,68.3,22.2,67.3z M30.9,49.8c1.9-1.7,3.6-3.1,4.6-3.9c1.5-3.7,2.7-7.1,3.7-10.1
	c0.4-1.2,0.8-2.3,1.2-3.4c0-0.4,0-0.6,0-0.7c0,0-10.1,7.1-11,8.1c-0.5,0.5-0.7,1-0.6,1.9C29.2,42.5,30.1,46.5,30.9,49.8z M31.5,51.1
	c0.2,1,0.5,2,0.6,2.7c0.8-1.8,1.6-3.6,2.3-5.3C33.6,49.3,32.6,50.1,31.5,51.1z M65,18.9c0.3-0.3,0.5-0.5,0.7-0.8
	c1.3-1.5,2.6-3.1,3.6-4.7c-2.1-3.6-3.6-7.5-4.5-11.6c-0.9,4-2.3,7.8-4.4,11.3c1.1,1.8,2.4,3.4,3.8,4.9C64.5,18.4,64.8,18.6,65,18.9z
	 M65.9,27c1.4-1.4,3-2.7,4.7-3.9c1.4,1,2.7,2.2,4,3.4c-1.7,1.8-3.3,3.8-4.6,5.9c-1-1.6-2.1-3.2-3.3-4.6C66.4,27.6,66.2,27.3,65.9,27
	z M75.4,28.2c-0.5,7.4-0.7,12.8-0.5,18.1c-0.1-0.8-0.3-1.5-0.4-2.3c-0.6-2.9-1.6-5.8-2.9-8.5c-0.2-0.4-0.4-0.9-0.7-1.3
	C72.2,32,73.7,30,75.4,28.2z M55.1,46.8c0.3-5.4,0.1-10.9-0.4-18.4c1.7,1.8,3.1,3.8,4.4,6c-0.2,0.4-0.4,0.7-0.5,1.1
	C56.7,39.1,55.6,42.9,55.1,46.8z M59.5,35.3c3,5.4,4.5,11.4,4.5,17.6l0,0c0,0,0,0,0,0.1l0,0v41.1H44.2V75.5
	C48.7,69,53.5,61.6,54.6,52c0,0.3,0,0.7,0,1c0-0.2,0-0.4,0-0.5c0,0.1,0,0.2,0,0.4c0.1-3,0.5-5.9,1.3-8.8c0.8-2.8,1.8-5.6,3.3-8.2
	C59.3,35.7,59.4,35.5,59.5,35.3z M65,26c-1.3-1.4-2.8-2.7-4.3-3.9c1.3-0.9,2.7-1.7,4.2-2.4c1.5,0.7,2.9,1.5,4.3,2.5
	C67.7,23.4,66.3,24.6,65,26z M85.6,75.1v19H65.7V53l0,0c0,0,0,0,0-0.1l0,0c0-6.2,1.6-12.4,4.7-17.9c0.2,0.3,0.3,0.5,0.4,0.8
	c1.4,2.6,2.5,5.3,3.3,8.2c0.5,2,0.9,4,1.1,6.1c0,0.2,0,0.4,0,0.6c0,0.3,0,0.6,0,0.9c0,0.5,0,1,0,1.5c0-0.1,0-0.3,0-0.4
	c0,0,0,0.1,0,0.1c0-0.1,0-0.2,0-0.3c0-0.1,0-0.3,0-0.4C76.5,61.5,81.1,68.7,85.6,75.1z M59.3,23.1c1.7,1.2,3.3,2.5,4.8,3.9
	c-0.3,0.3-0.5,0.6-0.8,0.9l0,0c-1.3,1.5-2.4,3.1-3.4,4.8c-1.4-2.2-3-4.3-4.8-6.2C56.5,25.3,57.9,24.2,59.3,23.1z"/>
</svg>
