<svg id="logo-nav" xmlns="http://www.w3.org/2000/svg" width="55" height="98.953" viewBox="0 0 55 98.953">
  <defs>
    <style>
      .cls-1 {
        fill: #a81b8d;
      }
    </style>
  </defs>
  <path id="logo-ideogram" class="cls-1" d="M262.867,225.712a48.967,48.967,0,0,1,6.631,8.8q-.374.712-.726,1.435a49.942,49.942,0,0,0-5.01,20.619,50.224,50.224,0,0,0-6.344-23.777A49.346,49.346,0,0,1,262.867,225.712Zm14.42,22.9a50.935,50.935,0,0,1,5.991-15.364,49.34,49.34,0,0,0-4.835-6.3q-.481-.532-.977-1.048-.5.517-.977,1.048a49.344,49.344,0,0,0-5.023,6.589,50.879,50.879,0,0,1,5.82,15.07Zm5.734-30.356a48.377,48.377,0,0,0-5.712-3.273,48.335,48.335,0,0,0-5.541,3.159,51.182,51.182,0,0,1,5.7,5.206A51.2,51.2,0,0,1,283.021,218.257Zm-7.78,7.618q.5-.6,1.012-1.191a49.158,49.158,0,0,0-6.368-5.229,48.807,48.807,0,0,0-5.488,4.673,50.9,50.9,0,0,1,6.33,8.185A50.785,50.785,0,0,1,275.241,225.875Zm.946,33.336h0c0-.038,0-.076,0-.114h0a48.514,48.514,0,0,0-6.015-23.4q-.214.377-.422.757a49.164,49.164,0,0,0-4.335,10.879,50.057,50.057,0,0,0-1.658,11.661c0-.164-.005-.328-.007-.492-.006.237-.012.475-.021.712a49.755,49.755,0,0,0-2.478-13.688,48.857,48.857,0,0,0-5.056-10.695,48.771,48.771,0,0,0-6.408,24.108v55h26.4ZM298.578,235.1a48.865,48.865,0,0,0-4.954,10.531,49.717,49.717,0,0,0-2.442,12.946c0,.138,0,.275-.006.413,0-.057,0-.115-.005-.172-.008.167-.018.334-.024.5-.026-.653-.037-1.307-.037-1.962a49.917,49.917,0,0,0-1.592-10.029,49.133,49.133,0,0,0-4.335-10.879q-.295-.542-.6-1.075a48.5,48.5,0,0,0-6.193,23.729h0c0,.035,0,.07,0,.1h0v54.725h26.4V256.918A48.82,48.82,0,0,0,298.578,235.1Zm-8.38-11a48.854,48.854,0,0,0-5.311-4.538,49.171,49.171,0,0,0-6.206,5.117q.515.588,1.012,1.191a50.826,50.826,0,0,1,4.339,6.143A50.913,50.913,0,0,1,290.2,224.106Zm-.144,23.1a50.1,50.1,0,0,1,1.086,8.431,50.174,50.174,0,0,1,6.23-22.571,49.353,49.353,0,0,0-5.64-7.374,49,49,0,0,0-6.463,8.506q.465.869.9,1.754A49.962,49.962,0,0,1,290.054,247.2Z" transform="translate(-249.787 -214.984)"/>
</svg>
