<?xml version="1.0" encoding="utf-8"?>
<!-- Generator: Adobe Illustrator 24.3.0, SVG Export Plug-In . SVG Version: 6.00 Build 0)  -->
<svg version="1.1" id="logo" xmlns="http://www.w3.org/2000/svg" xmlns:xlink="http://www.w3.org/1999/xlink" x="0px" y="0px"
	 viewBox="0 0 447.1 75.6" style="enable-background:new 0 0 447.1 75.6;" xml:space="preserve">
<style type="text/css">
	.st0{fill:#FFFFFF;}
</style>
<g id="logo-typeface">
	<path class="st0" d="M2.7,72.7V3.5h14.3c4.6,0,8.3,0.6,11.1,1.9c2.9,1.3,5,3.3,6.3,5.9c1.4,2.7,2.1,6.1,2.1,10.3
		c0,2.6-0.3,5.1-0.8,7.3c-0.6,2.2-1.5,4.1-2.8,5.6c-1.3,1.5-3,2.6-5.2,3.2l10,34.9H31c-1,0-1.9-0.7-2.2-1.7L20,39.9h-8.4v32.8H2.7z
		 M11.6,33.5h4.9c2.7,0,4.9-0.4,6.7-1.1c1.7-0.8,2.9-2,3.7-3.7c0.7-1.7,1.1-4,1.1-6.9c0-4.1-0.7-7.1-2.2-9c-1.4-1.9-4.4-2.8-8.7-2.8
		h-5.5V33.5z"/>
	<path id="A_new_1_" class="st0" d="M82.4,31.9v40.4H76c-1.3,0-2.3-1-2.3-2.3V31.9c-0.6-7.6-3.6-12.8-10.3-19.2
		c-6.7,6.4-9.7,11.6-10.3,19.2v38.1c0,1.3-1,2.3-2.3,2.3h-6.3V31.9c1.7-12.6,7.6-22.2,18.8-28V3.8c0,0,0.1,0,0.2,0.1
		c0,0,0.1,0,0.2-0.1v0.2C74.9,9.7,80.7,19.3,82.4,31.9z M63.4,50.6c1-4.9,2.9-9.6,5.4-14c-1.3-2-2.8-4-4.4-5.7
		c-0.3-0.3-0.6-0.6-0.9-1c-0.3,0.3-0.6,0.6-0.9,1c-1.7,1.9-3.2,3.9-4.6,6C60.6,41.2,62.4,45.8,63.4,50.6z"/>
	<path class="st0" d="M93.4,72.4V6c0-1.3,1-2.3,2.3-2.3h6.3v66.3c0,1.3-1,2.3-2.3,2.3H93.4z"/>
	<path class="st0" d="M118.2,72.4V3.7h6.1l20.1,47.5V6c0-1.3,1-2.3,2.3-2.3h5v68.6H146l-20.3-48.6v46.3c0,1.3-1,2.3-2.3,2.3H118.2z"
		/>
	<path class="st0" d="M180.5,73.1c-3.9,0-7.1-0.8-9.7-2.5c-2.6-1.7-4.5-4-5.9-6.9c-1.3-2.9-2.1-6.3-2.4-10.3l5.2-1.4
		c1.3-0.3,2.7,0.5,2.9,1.9c0.2,1.6,0.6,3.2,1,4.6c0.6,2.2,1.6,4.1,3,5.5c1.4,1.4,3.3,2.1,5.9,2.1c2.7,0,4.7-0.7,6-2.2
		c1.4-1.4,2.1-3.5,2.1-6.3c0-3.1-0.7-5.7-2.2-7.6c-1.4-2-3.3-4-5.6-6l-11.7-10.6c-2.2-2-3.8-4.1-4.9-6.4c-1.1-2.3-1.6-5.1-1.6-8.4
		c0-4.9,1.4-8.7,4.3-11.4s6.8-4.1,11.6-4.1c2.7,0,5,0.3,7,1c2,0.7,3.7,1.7,5.1,3.2c1.4,1.4,2.5,3.3,3.3,5.5c0.8,2.2,1.4,4.9,1.6,7.9
		l-4.9,1.3c-1.3,0.3-2.6-0.5-2.8-1.9c-0.2-1.4-0.5-2.7-0.8-4c-0.6-1.9-1.5-3.5-2.9-4.6c-1.3-1.1-3.2-1.7-5.6-1.7
		c-2.5,0-4.4,0.6-5.9,2s-2.2,3.3-2.2,5.9c0,2.1,0.3,3.8,1.1,5.2c0.7,1.4,1.9,2.9,3.5,4.4l11.8,10.4c2.6,2.4,4.9,5.1,6.8,8.2
		s3,6.8,3,11c0,3.4-0.7,6.3-2.1,8.7c-1.4,2.4-3.3,4.2-5.7,5.5C186.6,72.5,183.7,73.1,180.5,73.1z"/>
	<path class="st0" d="M235.1,6v26.7h-18.6v-29h-8.8v68.6h6.5c1.3,0,2.3-1,2.3-2.3V40h18.6v32.4h8.7V3.7h-6.5
		C236.1,3.7,235.1,4.8,235.1,6z"/>
	<path id="A_new_2_" class="st0" d="M290.1,31.9v40.4h-6.3c-1.3,0-2.3-1-2.3-2.3V31.9c-0.6-7.6-3.6-12.8-10.3-19.2
		c-6.7,6.4-9.7,11.6-10.3,19.2v38.1c0,1.3-1,2.3-2.3,2.3h-6.3V31.9c1.7-12.6,7.6-22.2,18.8-28V3.8c0,0,0.1,0,0.2,0.1
		c0,0,0.1,0,0.2-0.1v0.2C282.5,9.7,288.4,19.3,290.1,31.9z M271.1,50.6c1-4.9,2.9-9.6,5.4-14c-1.3-2-2.8-4-4.4-5.7
		c-0.3-0.3-0.6-0.6-0.9-1c-0.3,0.3-0.6,0.6-0.9,1c-1.7,1.9-3.2,3.9-4.6,6C268.2,41.2,270,45.8,271.1,50.6z"/>
	<path class="st0" d="M298.4,72.4V3.7h14.9c5,0,9,0.8,11.9,2.4c2.9,1.6,4.9,3.9,6.2,7s1.9,6.9,1.9,11.4v25.7c0,4.7-0.6,8.7-1.9,12
		c-1.3,3.3-3.3,5.8-6,7.5c-2.8,1.7-6.6,2.6-11.3,2.6L298.4,72.4L298.4,72.4z M307.2,66h6.2c3.6,0,6.1-0.7,7.6-2.1
		c1.5-1.4,2.5-3.4,2.8-6c0.3-2.6,0.5-5.7,0.5-9.3V25.5c0-3.5-0.2-6.4-0.7-8.6c-0.5-2.2-1.5-3.9-3.1-4.9c-1.6-1-4-1.6-7.4-1.6h-5.9
		L307.2,66L307.2,66z"/>
	<path class="st0" d="M363.1,73.1c-4.6,0-8.3-0.9-11-2.7c-2.7-1.8-4.7-4.4-5.8-7.7s-1.7-7.1-1.7-11.6V24.5c0-4.4,0.6-8.2,1.7-11.4
		c1.1-3.2,3.1-5.7,5.8-7.4c2.7-1.7,6.3-2.6,10.9-2.6c4.6,0,8.2,0.9,10.9,2.6c2.7,1.7,4.6,4.2,5.8,7.4c1.2,3.2,1.8,7,1.8,11.4v26.8
		c0,4.3-0.6,8.2-1.8,11.5c-1.2,3.3-3.1,5.9-5.8,7.7C371.4,72.2,367.7,73.1,363.1,73.1z M363.1,66.2c2.7,0,4.7-0.5,6-1.6
		c1.4-1.1,2.3-2.6,2.8-4.6c0.5-2,0.7-4.3,0.7-6.8V22.8c0-2.7-0.2-4.9-0.7-6.8c-0.5-1.9-1.4-3.3-2.8-4.4c-1.4-1-3.4-1.6-6-1.6
		s-4.7,0.5-6,1.6c-1.4,1.1-2.3,2.5-2.9,4.4c-0.5,1.9-0.8,4.2-0.8,6.8v30.3c0,2.6,0.3,4.9,0.8,6.8c0.5,2,1.4,3.5,2.9,4.6
		C358.4,65.6,360.4,66.2,363.1,66.2z"/>
	<path class="st0" d="M400.9,72.4L389.6,3.7h5.3c1.1,0,2.1,0.8,2.2,1.9l7.9,52.7l9.4-25.6h4.7c1,0,1.8,0.6,2.1,1.5l8.9,24.1
		l7.3-52.6c0.2-1.1,1.1-2,2.2-2h5.2l-11,68.6h-6.5l-9.8-29.7l-10,29.7L400.9,72.4L400.9,72.4z"/>
	<path class="st0" d="M417.3,28.1c1-4.9,2.9-9.6,5.4-14c-1.3-2-2.8-4-4.4-5.7c-0.3-0.3-0.6-0.6-0.9-1c-0.3,0.3-0.6,0.6-0.9,1
		c-1.7,1.9-3.2,3.9-4.6,6C414.5,18.7,416.3,23.3,417.3,28.1z"/>
</g>
</svg>
