<svg xmlns="http://www.w3.org/2000/svg" width="50" height="50" viewBox="0 0 50 50">
  <defs>
    <style>
      .cls-1, .cls-4 {
        fill: none;
      }

      .cls-1 {
        stroke: #a81b8d;
        stroke-width: 2px;
      }

      .cls-2 {
        fill: #a81b8d;
      }

      .cls-3 {
        stroke: none;
      }
    </style>
  </defs>
  <g id="media-instagram" transform="translate(-951 -2241)">
    <g id="矩形_17" data-name="矩形 17" class="cls-1" transform="translate(951 2241)">
      <rect class="cls-3" width="50" height="50" rx="25"/>
      <rect class="cls-4" x="1" y="1" width="48" height="48" rx="24"/>
    </g>
    <path id="路径_12" data-name="路径 12" class="cls-2" d="M961.891,63.914h-18.4a5.8,5.8,0,0,0-5.8,5.8V88.117a5.8,5.8,0,0,0,5.8,5.8h18.4a5.8,5.8,0,0,0,5.8-5.8V69.711A5.8,5.8,0,0,0,961.891,63.914Zm1.664,3.459.662,0v5.084l-5.067.018-.017-5.084Zm-15.147,8.463a5.269,5.269,0,1,1-1,3.078A5.277,5.277,0,0,1,948.408,75.836Zm16.36,12.281a2.879,2.879,0,0,1-2.877,2.875h-18.4a2.877,2.877,0,0,1-2.875-2.875V75.836h4.479a8.2,8.2,0,1,0,15.2,0h4.481Z" transform="translate(23.31 2187.086)"/>
  </g>
</svg>
