<svg xmlns="http://www.w3.org/2000/svg" width="50" height="50" viewBox="0 0 50 50">
  <defs>
    <style>
      .cls-1, .cls-4 {
        fill: none;
      }

      .cls-1 {
        stroke: #a81b8d;
        stroke-width: 2px;
      }

      .cls-2 {
        fill: #a81b8d;
      }

      .cls-3 {
        stroke: none;
      }
    </style>
  </defs>
  <g id="media-github" transform="translate(-951 -2318)">
    <g id="矩形_18" data-name="矩形 18" class="cls-1" transform="translate(951 2318)">
      <rect class="cls-3" width="50" height="50" rx="25"/>
      <rect class="cls-4" x="1" y="1" width="48" height="48" rx="24"/>
    </g>
    <path id="path9-5" class="cls-2" d="M814.055,59.651a10.2,10.2,0,0,0,.529,1.207c1.224,2.219,3.582,3.6,7.56,3.981a3.405,3.405,0,0,0-1.344,2.194,4.387,4.387,0,0,1-3.266.262c-1.564-.494-2.163-3.589-4.5-3.148-.507.095-.407.43.032.714a4.6,4.6,0,0,1,1.9,2.269,3.841,3.841,0,0,0,3.881,2.631,11.608,11.608,0,0,0,1.786-.127s.02,2.41.02,3.347c0,1.081-1.46,1.385-1.46,1.9,0,.205.484.225.871.225.768,0,2.363-.641,2.363-1.763,0-.892.015-3.893.015-4.417a1.691,1.691,0,0,1,.615-1.511s.076,6.125-.147,6.946c-.262.965-.735.828-.735,1.259,0,.641,1.922.157,2.559-1.249.491-1.1.276-7.1.276-7.1l.525-.011s.03,2.75.012,4.008c-.019,1.3-.107,2.949.666,3.725.509.51,2.156,1.407,2.156.588,0-.476-.9-.866-.9-2.153V67.5c.721,0,.613,1.948.613,1.948l.052,3.621a1.845,1.845,0,0,0,1.428,1.87c.561.2,1.757.248,1.814-.08s-1.442-.818-1.456-1.84c-.009-.622.028-.986.028-3.693s-.364-3.708-1.632-4.505c3.911-.4,6.333-1.369,7.512-3.959a4.082,4.082,0,0,0,.43-1.21,14.574,14.574,0,0,0,.436-3.5,7.927,7.927,0,0,0-2.127-5.645c.5-2.813-.084-4.092-.357-4.531-1.008-.358-3.507.922-4.872,1.823-2.224-.65-6.928-.588-8.693.168-3.254-2.33-4.976-1.973-4.976-1.973a6.854,6.854,0,0,0-.294,4.911,6.6,6.6,0,0,0-1.869,4.887,12.05,12.05,0,0,0,.553,3.859Z" transform="translate(151.31 2282.085)"/>
  </g>
</svg>
