<svg xmlns="http://www.w3.org/2000/svg" width="50" height="50" viewBox="0 0 50 50">
  <defs>
    <style>
      .cls-1, .cls-4 {
        fill: none;
      }

      .cls-1 {
        stroke: #f0f0f0;
        stroke-width: 2px;
      }

      .cls-2 {
        fill: #fff;
      }

      .cls-3 {
        stroke: none;
      }
    </style>
  </defs>
  <g id="media-linkedin" transform="translate(-951 -2318)">
    <g id="矩形_18" data-name="矩形 18" class="cls-1" transform="translate(951 2318)">
      <rect class="cls-3" width="50" height="50" rx="25"/>
      <rect class="cls-4" x="1" y="1" width="48" height="48" rx="24"/>
    </g>
    <g id="media-linkedin-2" data-name="media-linkedin" transform="translate(-37.69 2273.086)">
      <rect id="矩形_47" data-name="矩形 47" class="cls-2" width="7" height="19" transform="translate(1000.69 62.914)"/>
      <path id="路径_13" data-name="路径 13" class="cls-2" d="M1003.941,60.416a3.251,3.251,0,1,0-3.251-3.251A3.253,3.253,0,0,0,1003.941,60.416Z" transform="translate(0)"/>
      <path id="路径_14" data-name="路径 14" class="cls-2" d="M1029.339,72.282c0-5.013-1.082-8.368-6.926-8.368-2.808,0-4.693,1.043-5.464,2.507h-.08V63.914h-5.179V82.492h5.413V73.284c0-2.428.459-4.78,3.463-4.78,2.959,0,3.2,2.777,3.2,4.936v9.052h5.573Z" transform="translate(-0.782 -0.711)"/>
    </g>
  </g>
</svg>
