<svg xmlns="http://www.w3.org/2000/svg" width="52" height="52" viewBox="0 0 52 52">
  <defs>
    <style>
      .cls-1 {
        fill: none;
        stroke: #fff;
        stroke-width: 2px;
      }

      .cls-2 {
        fill: #fff;
      }
    </style>
  </defs>
  <g id="twetter" transform="translate(6 1)">
    <g id="图层_3" data-name="图层 3">
      <rect id="矩形_16" data-name="矩形 16" class="cls-1" width="50" height="50" rx="25" transform="translate(-5)"/>
    </g>
    <g id="Icons" transform="translate(4.5 7.5)">
      <path id="路径_6" data-name="路径 6" class="cls-2" d="M37.71,5.525A14.9,14.9,0,0,1,33.075,7.28,7.335,7.335,0,0,0,27.735,5a7.26,7.26,0,0,0-7.305,7.2,7.38,7.38,0,0,0,.18,1.635,20.85,20.85,0,0,1-15-7.5,7.065,7.065,0,0,0-1.11,3.6,7.156,7.156,0,0,0,3.256,6A7.29,7.29,0,0,1,4.5,15.02v.09a7.245,7.245,0,0,0,5.865,7.065,7.5,7.5,0,0,1-1.935.24,8.25,8.25,0,0,1-1.365-.12A7.32,7.32,0,0,0,13.89,27.29a14.79,14.79,0,0,1-9,3.075A16.964,16.964,0,0,1,3,30.275,21,21,0,0,0,14.28,33.5,20.49,20.49,0,0,0,35.07,13.025V12.1a14.82,14.82,0,0,0,3.63-3.72A14.73,14.73,0,0,1,34.5,9.5,7.215,7.215,0,0,0,37.71,5.525Z" transform="translate(-4 0)"/>
    </g>
  </g>
</svg>
