<svg version="1.1" id="logo" xmlns="http://www.w3.org/2000/svg" x="0" y="0" viewBox="0 0 447.1 75.6" style="enable-background:new 0 0 447.1 75.6" xml:space="preserve"><style>.st0{fill:#fff}</style><g id="logo-typeface"><path class="st0" d="M2.7 72.7V3.5H17c4.6 0 8.3.6 11.1 1.9 2.9 1.3 5 3.3 6.3 5.9 1.4 2.7 2.1 6.1 2.1 10.3 0 2.6-.3 5.1-.8 7.3-.6 2.2-1.5 4.1-2.8 5.6-1.3 1.5-3 2.6-5.2 3.2l10 34.9H31c-1 0-1.9-.7-2.2-1.7l-8.8-31h-8.4v32.8H2.7zm8.9-39.2h4.9c2.7 0 4.9-.4 6.7-1.1 1.7-.8 2.9-2 3.7-3.7.7-1.7 1.1-4 1.1-6.9 0-4.1-.7-7.1-2.2-9-1.4-1.9-4.4-2.8-8.7-2.8h-5.5v23.5z"/><path id="A_new_1_" class="st0" d="M82.4 31.9v40.4H76c-1.3 0-2.3-1-2.3-2.3V31.9c-.6-7.6-3.6-12.8-10.3-19.2-6.7 6.4-9.7 11.6-10.3 19.2V70c0 1.3-1 2.3-2.3 2.3h-6.3V31.9c1.7-12.6 7.6-22.2 18.8-28v-.1s.1 0 .2.1c0 0 .1 0 .2-.1V4c11.2 5.7 17 15.3 18.7 27.9zm-19 18.7c1-4.9 2.9-9.6 5.4-14-1.3-2-2.8-4-4.4-5.7-.3-.3-.6-.6-.9-1-.3.3-.6.6-.9 1-1.7 1.9-3.2 3.9-4.6 6 2.6 4.3 4.4 8.9 5.4 13.7z"/><path class="st0" d="M93.4 72.4V6c0-1.3 1-2.3 2.3-2.3h6.3V70c0 1.3-1 2.3-2.3 2.3h-6.3zm24.8 0V3.7h6.1l20.1 47.5V6c0-1.3 1-2.3 2.3-2.3h5v68.6H146l-20.3-48.6V70c0 1.3-1 2.3-2.3 2.3h-5.2zm62.3.7c-3.9 0-7.1-.8-9.7-2.5-2.6-1.7-4.5-4-5.9-6.9-1.3-2.9-2.1-6.3-2.4-10.3l5.2-1.4c1.3-.3 2.7.5 2.9 1.9.2 1.6.6 3.2 1 4.6.6 2.2 1.6 4.1 3 5.5 1.4 1.4 3.3 2.1 5.9 2.1 2.7 0 4.7-.7 6-2.2 1.4-1.4 2.1-3.5 2.1-6.3 0-3.1-.7-5.7-2.2-7.6-1.4-2-3.3-4-5.6-6l-11.7-10.6c-2.2-2-3.8-4.1-4.9-6.4-1.1-2.3-1.6-5.1-1.6-8.4 0-4.9 1.4-8.7 4.3-11.4s6.8-4.1 11.6-4.1c2.7 0 5 .3 7 1s3.7 1.7 5.1 3.2c1.4 1.4 2.5 3.3 3.3 5.5.8 2.2 1.4 4.9 1.6 7.9l-4.9 1.3c-1.3.3-2.6-.5-2.8-1.9-.2-1.4-.5-2.7-.8-4-.6-1.9-1.5-3.5-2.9-4.6-1.3-1.1-3.2-1.7-5.6-1.7-2.5 0-4.4.6-5.9 2s-2.2 3.3-2.2 5.9c0 2.1.3 3.8 1.1 5.2.7 1.4 1.9 2.9 3.5 4.4l11.8 10.4c2.6 2.4 4.9 5.1 6.8 8.2s3 6.8 3 11c0 3.4-.7 6.3-2.1 8.7-1.4 2.4-3.3 4.2-5.7 5.5-2.2 1.4-5.1 2-8.3 2zM235.1 6v26.7h-18.6v-29h-8.8v68.6h6.5c1.3 0 2.3-1 2.3-2.3V40h18.6v32.4h8.7V3.7h-6.5c-1.2 0-2.2 1.1-2.2 2.3z"/><path id="A_new_2_" class="st0" d="M290.1 31.9v40.4h-6.3c-1.3 0-2.3-1-2.3-2.3V31.9c-.6-7.6-3.6-12.8-10.3-19.2-6.7 6.4-9.7 11.6-10.3 19.2V70c0 1.3-1 2.3-2.3 2.3h-6.3V31.9c1.7-12.6 7.6-22.2 18.8-28v-.1s.1 0 .2.1c0 0 .1 0 .2-.1V4c11 5.7 16.9 15.3 18.6 27.9zm-19 18.7c1-4.9 2.9-9.6 5.4-14-1.3-2-2.8-4-4.4-5.7-.3-.3-.6-.6-.9-1-.3.3-.6.6-.9 1-1.7 1.9-3.2 3.9-4.6 6 2.5 4.3 4.3 8.9 5.4 13.7z"/><path class="st0" d="M298.4 72.4V3.7h14.9c5 0 9 .8 11.9 2.4 2.9 1.6 4.9 3.9 6.2 7s1.9 6.9 1.9 11.4v25.7c0 4.7-.6 8.7-1.9 12-1.3 3.3-3.3 5.8-6 7.5-2.8 1.7-6.6 2.6-11.3 2.6l-15.7.1zm8.8-6.4h6.2c3.6 0 6.1-.7 7.6-2.1 1.5-1.4 2.5-3.4 2.8-6 .3-2.6.5-5.7.5-9.3V25.5c0-3.5-.2-6.4-.7-8.6-.5-2.2-1.5-3.9-3.1-4.9-1.6-1-4-1.6-7.4-1.6h-5.9V66zm55.9 7.1c-4.6 0-8.3-.9-11-2.7-2.7-1.8-4.7-4.4-5.8-7.7s-1.7-7.1-1.7-11.6V24.5c0-4.4.6-8.2 1.7-11.4 1.1-3.2 3.1-5.7 5.8-7.4 2.7-1.7 6.3-2.6 10.9-2.6 4.6 0 8.2.9 10.9 2.6 2.7 1.7 4.6 4.2 5.8 7.4 1.2 3.2 1.8 7 1.8 11.4v26.8c0 4.3-.6 8.2-1.8 11.5-1.2 3.3-3.1 5.9-5.8 7.7-2.5 1.7-6.2 2.6-10.8 2.6zm0-6.9c2.7 0 4.7-.5 6-1.6 1.4-1.1 2.3-2.6 2.8-4.6.5-2 .7-4.3.7-6.8V22.8c0-2.7-.2-4.9-.7-6.8-.5-1.9-1.4-3.3-2.8-4.4-1.4-1-3.4-1.6-6-1.6s-4.7.5-6 1.6c-1.4 1.1-2.3 2.5-2.9 4.4-.5 1.9-.8 4.2-.8 6.8v30.3c0 2.6.3 4.9.8 6.8.5 2 1.4 3.5 2.9 4.6 1.3 1.1 3.3 1.7 6 1.7zm37.8 6.2L389.6 3.7h5.3c1.1 0 2.1.8 2.2 1.9l7.9 52.7 9.4-25.6h4.7c1 0 1.8.6 2.1 1.5l8.9 24.1 7.3-52.6c.2-1.1 1.1-2 2.2-2h5.2l-11 68.6h-6.5l-9.8-29.7-10 29.7-6.6.1z"/><path class="st0" d="M417.3 28.1c1-4.9 2.9-9.6 5.4-14-1.3-2-2.8-4-4.4-5.7-.3-.3-.6-.6-.9-1-.3.3-.6.6-.9 1-1.7 1.9-3.2 3.9-4.6 6 2.6 4.3 4.4 8.9 5.4 13.7z"/></g></svg>