<svg xmlns="http://www.w3.org/2000/svg" viewBox="0 0 130 103.5" style="enable-background:new 0 0 130 103.5" xml:space="preserve"><path d="M37.6 83.4V94h-1.1v-9.6c.4-.3.7-.7 1.1-1zm2.6-2.8v13.6h1.1V79.3c-.4.5-.8.9-1.1 1.3zM29.1 90.9V94h1.1v-3.9c-.4.3-.8.6-1.1.8zm3.6-2.9v6h1.1v-7c-.4.3-.7.6-1.1 1zm63.2-1.2v7.4H97v-6.4c-.4-.4-.7-.7-1.1-1zm3.7 3.1v4.2h1.1v-3.4c-.4-.2-.7-.5-1.1-.8zm-11.2-11v15.2h1.1V80.2c-.4-.4-.7-.8-1.1-1.3zm3.8 4.2v11h1.1v-9.9c-.4-.3-.8-.7-1.1-1.1zm15.4 10.5c7.6 4.9 15 7.8 20.7 8.2h.6v-.3c-.1-.6-.4-2-3.2-5.3-.3-.3-.7-.8-1.2-1.3-5.8-6.7-23.3-27.2-27.6-39.3-3.4-7.3-5.8-13.9-7.7-19.2-2.2-6.1-3.7-10.4-5.5-11.9-.6-.7-1.8-1.6-3.2-2-1.3-.3-1.9-.3-2.6-.3-.1 0-.2.2-.3.4-1 13.1-1.3 20.4-.5 28.7 1 10.2 6.5 17.9 11.3 24.8l.1.1c4.8 6.4 11.7 12.6 19.1 17.4zM52.5 22.5c0-.3-.2-.4-.3-.4-.7 0-1.3 0-2.6.3-1.4.4-2.6 1.3-3.2 2-1.7 1.5-3.3 5.8-5.5 11.9-1.9 5.3-4.3 11.9-7.7 19.2-4.3 12.2-21.9 32.6-27.7 39.3-.5.6-.9 1-1.2 1.3-2.8 3.3-3.1 4.6-3.2 5.3v.3h.6c5.8-.4 13.1-3.2 20.7-8.2 7.4-4.8 14.3-11.1 19.2-17.5l.1-.1C46.5 69 52 61.3 53 51.1c.8-8.2.5-15.4-.5-28.6zm45.4 31.3c.2-.8.4-1.7.6-2.7-1.1-.9-2.1-1.8-2.9-2.5.7 1.6 1.4 3.4 2.3 5.2zm-7.1-18c1.1 3 2.3 6.4 3.7 10.1 1 .9 2.7 2.3 4.6 3.9.8-3.4 1.7-7.3 2-8.1.2-.9-.1-1.4-.6-1.9-.9-1-11-8.1-11-8.1v.7c.4 1.1.8 2.2 1.3 3.4zm7.9 19.9c.5 1.2 1.1 2.5 1.8 4 .5.8 1 1.5 1.6 2.3 1 1.4 2.7 3.8 5.6 5.3 2.7 1 4.4.4 6.2-1 .8-.8.3-1.4-1.2-2.8 0 0-8.5-7.3-13.2-11.4-.3 1.5-.6 2.8-.8 3.6zM22.2 67.3c3-1.5 4.6-3.9 5.6-5.3.5-.8 1.1-1.5 1.6-2.3.8-1.4 1.4-2.8 1.8-4-.2-.8-.5-2.1-.9-3.6-4.7 4-13.2 11.4-13.2 11.4-1.5 1.5-2 2.1-1.2 2.8 1.9 1.5 3.6 2 6.3 1zm8.7-17.5c1.9-1.7 3.6-3.1 4.6-3.9 1.5-3.7 2.7-7.1 3.7-10.1.4-1.2.8-2.3 1.2-3.4v-.7s-10.1 7.1-11 8.1c-.5.5-.7 1-.6 1.9.4.8 1.3 4.8 2.1 8.1zm.6 1.3c.2 1 .5 2 .6 2.7.8-1.8 1.6-3.6 2.3-5.3-.8.8-1.8 1.6-2.9 2.6zM65 18.9c.3-.3.5-.5.7-.8 1.3-1.5 2.6-3.1 3.6-4.7-2.1-3.6-3.6-7.5-4.5-11.6-.9 4-2.3 7.8-4.4 11.3 1.1 1.8 2.4 3.4 3.8 4.9.3.4.6.6.8.9zm.9 8.1c1.4-1.4 3-2.7 4.7-3.9 1.4 1 2.7 2.2 4 3.4-1.7 1.8-3.3 3.8-4.6 5.9-1-1.6-2.1-3.2-3.3-4.6-.3-.2-.5-.5-.8-.8zm9.5 1.2c-.5 7.4-.7 12.8-.5 18.1-.1-.8-.3-1.5-.4-2.3-.6-2.9-1.6-5.8-2.9-8.5-.2-.4-.4-.9-.7-1.3 1.3-2.2 2.8-4.2 4.5-6zM55.1 46.8c.3-5.4.1-10.9-.4-18.4 1.7 1.8 3.1 3.8 4.4 6-.2.4-.4.7-.5 1.1-1.9 3.6-3 7.4-3.5 11.3zm4.4-11.5c3 5.4 4.5 11.4 4.5 17.6v41.2H44.2V75.5C48.7 69 53.5 61.6 54.6 52v1-.5.4c.1-3 .5-5.9 1.3-8.8.8-2.8 1.8-5.6 3.3-8.2l.3-.6zM65 26c-1.3-1.4-2.8-2.7-4.3-3.9 1.3-.9 2.7-1.7 4.2-2.4 1.5.7 2.9 1.5 4.3 2.5-1.5 1.2-2.9 2.4-4.2 3.8zm20.6 49.1v19H65.7V52.9c0-6.2 1.6-12.4 4.7-17.9.2.3.3.5.4.8 1.4 2.6 2.5 5.3 3.3 8.2.5 2 .9 4 1.1 6.1v3-.4.1-.7c1.3 9.4 5.9 16.6 10.4 23zm-26.3-52c1.7 1.2 3.3 2.5 4.8 3.9-.3.3-.5.6-.8.9-1.3 1.5-2.4 3.1-3.4 4.8-1.4-2.2-3-4.3-4.8-6.2 1.4-1.2 2.8-2.3 4.2-3.4z" style="fill:#a81b8d"/></svg>