<svg xmlns="http://www.w3.org/2000/svg" width="52" height="52"><g data-name="图层 3" transform="translate(6 1)"><rect data-name="矩形 16" width="50" height="50" rx="25" transform="translate(-5)" style="fill:none;stroke:#fff;stroke-width:2px"/></g><path data-name="路径 6" d="M37.71 5.525a14.9 14.9 0 0 1-4.635 1.755A7.335 7.335 0 0 0 27.735 5a7.26 7.26 0 0 0-7.305 7.2 7.38 7.38 0 0 0 .18 1.635 20.85 20.85 0 0 1-15-7.5 7.065 7.065 0 0 0-1.11 3.6 7.156 7.156 0 0 0 3.256 6A7.29 7.29 0 0 1 4.5 15.02v.09a7.245 7.245 0 0 0 5.865 7.065 7.5 7.5 0 0 1-1.935.24 8.25 8.25 0 0 1-1.365-.12 7.32 7.32 0 0 0 6.825 4.995 14.79 14.79 0 0 1-9 3.075 16.964 16.964 0 0 1-1.89-.09A21 21 0 0 0 14.28 33.5a20.49 20.49 0 0 0 20.79-20.475V12.1a14.82 14.82 0 0 0 3.63-3.72 14.73 14.73 0 0 1-4.2 1.12 7.215 7.215 0 0 0 3.21-3.975Z" transform="translate(6.5 8.5)" style="fill:#fff"/></svg>