<svg xmlns="http://www.w3.org/2000/svg" width="50" height="50"><g data-name="矩形 17" style="stroke:#fff;stroke-width:2px;fill:none"><rect width="50" height="50" rx="25" style="stroke:none" stroke="none"/><rect x="1" y="1" width="48" height="48" rx="24" style="fill:none"/></g><path data-name="路径 9" d="m882.645 66.891 6.321-.183v5.365c0 .761.01.884-1.273 1.289a17.629 17.629 0 0 1-5.7.4 13.8 13.8 0 0 1-12.264-11.485 12.3 12.3 0 0 1 6.409-13.5 10.774 10.774 0 0 1 8.046-.68 12.514 12.514 0 0 1 5.059 3.1l-1.032 1.837 1.942-.538 2.995-2.991c-5.085-4.122-13.809-4.663-19.588-1.8-5.027 2.487-8.683 7.428-8.862 12.947a14.968 14.968 0 0 0 6.759 12.711c5.779 3.814 15.8 2.964 21.831-.016v-6.639l1.4-1.611H885.9Z" transform="translate(-854.69 -35.914)" style="fill:#fff"/></svg>