<svg xmlns="http://www.w3.org/2000/svg" width="50" height="50"><g data-name="矩形 17" style="stroke:#fff;stroke-width:2px;fill:none"><rect width="50" height="50" rx="25" style="stroke:none" stroke="none"/><rect x="1" y="1" width="48" height="48" rx="24" style="fill:none"/></g><path data-name="路径 12" d="M961.891 63.914h-18.4a5.8 5.8 0 0 0-5.8 5.8v18.403a5.8 5.8 0 0 0 5.8 5.8h18.4a5.8 5.8 0 0 0 5.8-5.8V69.711a5.8 5.8 0 0 0-5.8-5.797Zm1.664 3.459h.662v5.084l-5.067.018-.017-5.084Zm-15.147 8.463a5.269 5.269 0 1 1-1 3.078 5.277 5.277 0 0 1 1-3.078Zm16.36 12.281a2.879 2.879 0 0 1-2.877 2.875h-18.4a2.877 2.877 0 0 1-2.875-2.875V75.836h4.479a8.2 8.2 0 1 0 15.2 0h4.481Z" transform="translate(-927.69 -53.914)" style="fill:#fff"/></svg>